<?xml version="1.0" encoding="UTF-8"?>
<svg width="85px" height="33px" viewBox="0 0 85 33" version="1.1" xmlns="http://www.w3.org/2000/svg" xmlns:xlink="http://www.w3.org/1999/xlink">
    <!-- Generator: Sketch 48.1 (47250) - http://www.bohemiancoding.com/sketch -->
    <title>pic-suv</title>
    <desc>Created with Sketch.</desc>
    <defs></defs>
    <g id="Symbols" stroke="none" stroke-width="1" fill="none" fill-rule="evenodd">
        <g id="pic-suv" fill-rule="nonzero" stroke="#FF7D00">
            <path d="M6.83423616,18.4898513 C6.83759273,18.4879088 6.83880992,18.4872021 6.84115558,18.48584 C6.84093813,18.4753506 6.84077317,18.4673933 6.83742598,18.4679632 Z M6.50442754,21.393119 C6.54369776,21.9206484 6.7890599,22.3998184 7.19246753,22.7298792 L7.38025537,22.8835238 L7.37576293,23.1261155 C7.34757585,24.6482174 9.76139647,25.4325131 13.1398132,25.6088844 C13.7210335,21.7429427 17.2267863,18.9381939 21.1767304,19.2774534 C25.0180426,19.60172 27.9620639,22.7943436 28.0105354,26.6438674 L58.6818843,26.8486465 C58.6818092,26.8196024 58.6817939,26.7870842 58.6818146,26.7495321 C58.6061648,22.6140062 61.8853309,19.2102162 66.019645,19.1345885 C70.1551708,19.0589387 73.5589608,22.3381048 73.6346722,26.4815637 C73.6346722,26.6079071 73.6341109,26.7313912 73.6323392,26.8601223 C75.94933,26.6497297 77.5058086,25.9549182 77.5784142,25.1133301 C77.6252896,24.6523885 77.5526933,23.6898246 77.3882812,22.409997 C77.3464291,22.0842097 77.2993771,21.7434767 77.2480567,21.3919708 C77.1721431,20.8720194 77.0907597,20.3543418 77.0093818,19.863188 C76.9605953,19.568739 76.9227142,19.3489168 76.8992682,19.2161447 C76.3609577,15.7043094 71.96415,14.1182269 55.6417939,13.0039321 L55.4941992,12.9938561 L55.3758486,12.9050931 C55.3051472,12.8520671 55.1687241,12.7513238 54.9735628,12.6096949 C54.6472668,12.3729013 54.2761607,12.1088532 53.867242,11.8243879 C52.6987628,11.0115328 51.4625632,10.1986893 50.2150329,9.4406962 C49.277032,8.87077158 48.3685191,8.35421454 47.5027704,7.90367185 C46.1360176,7.19240253 44.9092539,6.66301237 43.9319295,6.36439236 C35.23914,5.07555606 20.9383083,5.16299081 13.6111638,6.95351842 C13.6247576,7.0091957 13.6333784,7.06627158 13.6368578,7.12487671 C13.6688416,7.66358691 13.3760588,7.99664799 12.5317087,8.67537852 C12.4501002,8.74097942 12.1375368,8.98951107 12.071595,9.04231108 C11.8804046,9.19539849 11.7230393,9.32415749 11.5676542,9.45568074 C11.1699353,9.79232365 10.8199125,10.1190902 10.4883043,10.4720825 C8.60474054,12.4771098 7.55813145,15.0936342 7.61114276,18.9050931 C7.61114276,19.184649 7.01307559,19.6026195 6.94343742,19.6882221 C6.64219992,20.0585176 6.46879834,20.6041448 6.50442754,21.393119 Z M60.5523192,26.7168578 C60.5523192,29.7348331 63.0108145,32.1933284 66.0287898,32.1933284 C69.0467651,32.1933284 71.5052604,29.7348331 71.5052604,26.7168578 C71.5052604,23.6988826 69.0467651,21.2403872 66.0287898,21.2403872 C63.0108145,21.2403872 60.5523192,23.6988826 60.5523192,26.7168578 Z M14.9052604,26.7168578 C14.9052604,29.7348331 17.3637557,32.1933284 20.381731,32.1933284 C23.3997063,32.1933284 25.8582016,29.7348331 25.8582016,26.7168578 C25.8582016,23.6988826 23.3997063,21.2403872 20.381731,21.2403872 C17.3637557,21.2403872 14.9052604,23.6988826 14.9052604,26.7168578 Z"></path>
        </g>
    </g>
</svg>