<?xml version="1.0" encoding="UTF-8"?>
<svg width="85px" height="33px" viewBox="0 0 85 33" version="1.1" xmlns="http://www.w3.org/2000/svg" xmlns:xlink="http://www.w3.org/1999/xlink">
    <!-- Generator: Sketch 48.1 (47250) - http://www.bohemiancoding.com/sketch -->
    <title>pic-limousine</title>
    <desc>Created with Sketch.</desc>
    <defs></defs>
    <g id="Symbols" stroke="none" stroke-width="1" fill="none" fill-rule="evenodd">
        <g id="pic-limousine" stroke="#FF7D00">
            <path d="M8.51567867,17.6835562 C8.48243892,17.7603975 8.44478157,17.8610721 8.404535,17.9820411 C8.29037131,18.3251827 8.16236514,18.8085304 8.03284647,19.3749795 C7.81685681,20.319609 7.60830821,21.4748713 7.60830821,21.6427398 L7.60830821,21.9837338 L7.29085197,22.1082264 C7.22658925,22.1334275 7.08928716,22.2250807 6.94063028,22.4061859 C6.64127655,22.7708813 6.46795708,23.3171403 6.50423152,24.0986449 C6.52756047,24.4641317 6.65181361,24.7846067 6.84618068,25.0614698 C6.97555642,25.2457571 7.10125692,25.367059 7.16980956,25.4174653 L7.37743269,25.5701294 L7.37355781,25.8278088 C7.35812261,26.8542496 8.60865165,27.6010731 10.8037607,28.0166517 C11.578838,28.1633895 12.4129567,28.2571781 13.2538484,28.3077964 C13.5137425,28.323441 13.751555,28.3338147 13.961441,28.3401322 C13.9400054,28.1144894 13.9307572,27.8725617 13.9307572,27.6039643 C13.9307572,23.9951689 16.8770638,21.0488623 20.4858592,21.0488623 C24.0946547,21.0488623 27.0409613,23.9951689 27.0409613,27.6039643 C27.0409613,28.1898094 26.9662176,28.7528838 26.8166419,29.2919044 C26.997164,29.293275 27.2413104,29.2951285 27.5832769,29.2977247 C29.1777267,29.3098261 29.1777267,29.3098261 31.4381199,29.3269698 C35.4279115,29.3572232 39.4235703,29.3874767 43.1610652,29.4157133 C43.2322562,29.4162511 43.2322562,29.4162511 43.3034488,29.4167889 C51.9158622,29.4818513 57.7900264,29.5258741 59.7563717,29.5399384 C59.5619913,28.9145995 59.4613694,28.2655833 59.4613694,27.6039643 C59.4613694,23.9951689 62.407676,21.0488623 66.0164715,21.0488623 C69.6252669,21.0488623 72.5715735,23.9951689 72.5715735,27.6039643 C72.5715735,28.2935402 72.4609601,28.9746809 72.2505121,29.6278268 C72.6867816,29.5912614 73.1797683,29.5261058 73.7194001,29.4354693 C74.227686,29.3500976 74.7653941,29.2441389 75.3204392,29.1222365 C75.8634087,29.0029862 76.3933468,28.8751263 76.888327,28.7473018 C77.1847139,28.6707623 77.4028813,28.6114424 77.5210759,28.5779777 L77.6572878,28.5590664 C77.675933,28.5590664 77.6925814,28.5593465 77.7074349,28.5598548 L77.3985651,28.0622312 L77.3925216,27.9322971 L77.2105513,23.951608 C76.5662539,19.9393921 73.0501029,18.3523207 57.3926208,17.2834155 L57.2717466,17.2751636 L57.1680567,17.2124975 C57.0872955,17.1636885 56.9326034,17.0713411 56.7123816,16.9416851 C56.3445519,16.7251245 55.9279631,16.4836942 55.4710273,16.2236281 C54.1654492,15.4805552 52.7990604,14.7375027 51.4394919,14.0444526 C50.691855,13.6633391 49.965945,13.3076215 49.2682587,12.9820523 C47.6493936,12.226623 46.2256799,11.653334 45.126445,11.3180416 C38.3772039,10.3264469 34.6825686,10.3056046 29.2881023,10.8456306 C29.3376785,10.8406676 28.5744513,10.9173924 28.3669014,10.9379337 C28.019613,10.9723049 27.7313924,10.9998017 27.4546395,11.0246616 C27.2996403,11.0385847 27.1502778,11.0514829 27.0614683,11.0554791 C23.5000738,11.767758 19.2912361,13.9057938 16.8417328,15.969982 L16.7037537,16.0862565 L16.5233205,16.0876234 C15.1966423,16.097674 14.2111435,16.0971154 12.9637645,16.0898633 C11.1647878,16.0794043 10.9004614,16.0832645 10.4093291,16.1415969 C10.0395183,16.1855198 9.71398546,16.249982 8.80989297,16.4518551 C8.69198218,16.4773493 8.67579431,16.4982628 8.66860223,16.5956325 C8.66270251,16.6755056 8.67701304,16.777027 8.70595948,16.8802185 C8.72085516,16.9333203 8.73480768,16.9714409 8.74080877,16.9853381 L9.042312,17.6835562 L8.51567867,17.6835562 Z M77.8220634,28.5896786 C77.8189449,28.5920507 77.8144307,28.592558 77.8144307,28.5896786 L77.8220657,28.5896786 Z M20.4858592,22.9876378 C17.9222057,22.9876378 15.8460633,25.0637802 15.8460633,27.6274337 C15.8460633,30.1910872 17.9222057,32.2672296 20.4858592,32.2672296 C23.0495128,32.2672296 25.1256551,30.1910872 25.1256551,27.6274337 C25.1256551,25.0637802 23.0495128,22.9876378 20.4858592,22.9876378 Z M65.8756551,22.9876378 C63.3120016,22.9876378 61.2358592,25.0637802 61.2358592,27.6274337 C61.2358592,30.1910872 63.3120016,32.2672296 65.8756551,32.2672296 C68.4393087,32.2672296 70.5154511,30.1910872 70.5154511,27.6274337 C70.5154511,25.0637802 68.4393087,22.9876378 65.8756551,22.9876378 Z"></path>
        </g>
    </g>
</svg>