<?xml version="1.0" encoding="UTF-8"?>
<svg width="85px" height="33px" viewBox="0 0 85 33" version="1.1" xmlns="http://www.w3.org/2000/svg" xmlns:xlink="http://www.w3.org/1999/xlink">
    <!-- Generator: Sketch 48.1 (47250) - http://www.bohemiancoding.com/sketch -->
    <title>pic-van</title>
    <desc>Created with Sketch.</desc>
    <defs></defs>
    <g id="Symbols" stroke="none" stroke-width="1" fill="none" fill-rule="evenodd">
        <g id="pic-van" stroke="#FF7D00">
            <path d="M14.3982523,27.7301715 C14.3982523,30.2662173 16.4520347,32.3199997 18.9880805,32.3199997 C21.5241263,32.3199997 23.5779086,30.2662173 23.5779086,27.7301715 C23.5779086,25.1941257 21.5241263,23.1403433 18.9880805,23.1403433 C16.4520347,23.1403433 14.3982523,25.1941257 14.3982523,27.7301715 Z M82.9362505,28.6371341 C82.9366905,28.6363286 82.9371497,28.635489 82.9376285,28.6346143 C82.9374062,28.6350205 82.9371832,28.6354278 82.9369597,28.6358361 Z M12.5223764,28.4324685 C12.2001532,25.4754816 13.9778764,22.5753485 16.8227125,21.5878926 C19.7446022,20.5551558 23.0898036,21.8086624 24.629033,24.5086247 C25.4693109,25.9901673 25.687762,27.7595012 25.2530553,29.3949457 C27.3729841,29.4067151 34.247324,29.4492851 45.1661593,29.5178695 C45.2913293,29.5186557 45.2913293,29.5186557 45.4164938,29.519442 C47.673819,29.5336228 50.0118635,29.5483347 52.8766627,29.5663784 C56.3641187,29.5883487 56.3641187,29.5883487 59.3764878,29.6073229 C62.2958535,29.6257047 64.1265843,29.6371944 65.0479376,29.6428984 C64.12143,26.7261147 65.221548,23.5055741 67.853644,22.0407555 C70.7535485,20.4268956 74.4994817,21.3096462 76.3872591,24.0532163 C77.5280113,25.7084254 77.8161254,27.8371973 77.196111,29.7406903 C77.5909364,29.7403813 77.831201,29.7381952 78.113282,29.7321574 C79.0568992,29.7119595 79.8094268,29.6489425 80.5148962,29.5152056 C81.090626,29.4150787 81.4163239,29.2656409 81.5942823,28.9990929 C81.6304245,28.9412653 81.7169985,28.7857335 81.8561883,28.529982 C81.8588669,28.5250601 81.8588669,28.5250601 81.8615459,28.5201365 C81.9687338,28.3227632 82.0226018,28.2235873 82.0604643,28.1544238 C82.2248846,27.8540772 82.1841224,27.926025 82.320045,27.8039363 C82.2880843,27.8326374 82.9466656,27.5854984 83.1792729,27.3980492 C83.6196911,27.0431332 83.8888864,26.450489 83.8888864,25.499014 C83.8888864,24.4810714 83.6764994,23.812239 83.342171,23.4104582 C83.1697134,23.2032066 83.0181662,23.1194568 82.9529564,23.1045844 L82.4559024,22.9912212 L82.578908,22.4964652 C82.6231337,22.3185795 82.6916577,21.9864997 82.7607504,21.5378044 C82.9664965,20.2016666 83.0201044,18.81166 82.8299326,17.5248382 C82.7236063,16.805367 82.543375,16.1495904 82.28317,15.5718457 C81.8735654,14.6659892 80.7133052,13.8552946 79.0334174,13.1898006 C78.2409029,12.875843 77.3878236,12.6153257 76.5342228,12.4063029 C76.2351621,12.3330714 75.9576997,12.2715864 75.7092157,12.22148 C75.5615175,12.1916969 75.4573538,12.1724934 75.4040682,12.1634758 L75.1977858,12.1285665 L75.0778359,11.9571515 C75.0228208,11.8785319 74.9126328,11.7268325 74.7504592,11.5125296 C74.4783091,11.1528992 74.1604946,10.7515257 73.8002294,10.3188945 C72.770147,9.08190062 71.6083045,7.84471857 70.341089,6.69130362 C67.099797,3.74109148 63.7499695,1.85336526 60.4709698,1.52358006 C50.5168705,0.539744663 15.8708519,0.0512629392 6.96466106,1.1038014 C6.71091854,1.13551922 5.54755386,2.44247733 4.59318968,4.14119889 C3.21087161,6.60165747 2.22730971,9.66580328 1.89216699,13.1594117 C1.82397237,13.8669309 1.75320708,15.3048013 1.68357873,17.2468448 C1.64738826,18.2562532 1.61377792,19.3380779 1.58361732,20.4199467 C1.57306015,20.7986355 1.56368876,21.1502648 1.55561111,21.465802 C1.54742816,21.7902662 1.54742816,21.7902662 1.54571247,21.8620837 L1.53676246,22.2367056 L1.17468643,22.3332592 C1.13025848,22.3451066 1.01795346,22.4062505 0.892897589,22.5438119 C0.652527906,22.8082186 0.5,23.2302125 0.5,23.8721282 C0.5,25.8030831 1.60230403,27.2247463 4.29045939,27.6788269 C6.49185225,28.0530636 10.0948185,28.383481 12.5223764,28.4324685 Z M66.528319,27.7301715 C66.528319,30.2662173 68.5821013,32.3199997 71.1181471,32.3199997 C73.6541929,32.3199997 75.7079753,30.2662173 75.7079753,27.7301715 C75.7079753,25.1941257 73.6541929,23.1403433 71.1181471,23.1403433 C68.5821013,23.1403433 66.528319,25.1941257 66.528319,27.7301715 Z"></path>
        </g>
    </g>
</svg>