<?xml version="1.0" encoding="UTF-8"?>
<svg width="85px" height="33px" viewBox="0 0 85 33" version="1.1" xmlns="http://www.w3.org/2000/svg" xmlns:xlink="http://www.w3.org/1999/xlink">
    <!-- Generator: Sketch 48.1 (47250) - http://www.bohemiancoding.com/sketch -->
    <title>pic-limousine-selected</title>
    <desc>Created with Sketch.</desc>
    <defs></defs>
    <g id="Symbols" stroke="none" stroke-width="1" fill="none" fill-rule="evenodd">
        <g id="pic-limousine-selected" fill="#FF7D00">
            <path d="M77.8919817,27.9090664 L77.7042266,23.8723317 C77.1879,20.6570255 75.9909613,18.0519235 57.4266756,16.7845766 C57.4266756,16.7845766 49.8930021,12.2315153 45.1991245,10.8233521 C35.2950429,9.36825003 31.2348388,10.213148 26.9634102,10.5651888 C22.8562674,11.3866174 18.6083082,13.8274337 16.5195327,15.5876378 C10.3236143,15.6345766 11.1215735,15.4233521 8.70422657,15.963148 C7.83585923,16.1509031 8.2817776,17.1835562 8.2817776,17.1835562 C7.882798,17.1835562 7.10830821,21.2437602 7.10830821,21.6427398 C7.10830821,21.6427398 5.91136943,22.1121276 6.00524698,24.1304949 C6.07565515,25.2335562 6.87361433,25.8202908 6.87361433,25.8202908 C6.82667555,28.9417194 14.5481041,28.8478419 14.5481041,28.8478419 C14.4542266,28.4488623 14.4307572,28.0264133 14.4307572,27.6039643 C14.4307572,24.2713113 17.1532062,21.5488623 20.4858592,21.5488623 C23.8185123,21.5488623 26.5409613,24.2713113 26.5409613,27.6039643 C26.5409613,28.3784541 26.4001449,29.1060051 26.1185123,29.7866174 C26.1185123,29.7866174 60.1021858,30.0447806 60.477696,30.0447806 C60.1491245,29.2937602 59.9613694,28.4723317 59.9613694,27.6039643 C59.9613694,24.2713113 62.6838184,21.5488623 66.0164715,21.5488623 C69.3491245,21.5488623 72.0715735,24.2713113 72.0715735,27.6039643 C72.0715735,28.5192704 71.860349,29.3876378 71.5083082,30.1621276 C73.7613694,30.1621276 77.6572878,29.0590664 77.6572878,29.0590664 C78.0562674,29.0590664 78.3144307,28.9886582 78.3144307,28.5896786 L77.8919817,27.9090664 Z M20.4858592,22.4876378 C17.6460633,22.4876378 15.3460633,24.7876378 15.3460633,27.6274337 C15.3460633,30.4672296 17.6460633,32.7672296 20.4858592,32.7672296 C23.3256551,32.7672296 25.6256551,30.4672296 25.6256551,27.6274337 C25.6256551,24.7876378 23.3256551,22.4876378 20.4858592,22.4876378 Z M65.8756551,22.4876378 C63.0358592,22.4876378 60.7358592,24.7876378 60.7358592,27.6274337 C60.7358592,30.4672296 63.0358592,32.7672296 65.8756551,32.7672296 C68.7154511,32.7672296 71.0154511,30.4672296 71.0154511,27.6274337 C71.0154511,24.7876378 68.7154511,22.4876378 65.8756551,22.4876378 Z" id="pic-limousine"></path>
        </g>
    </g>
</svg>