<?xml version="1.0" encoding="UTF-8"?>
<svg width="85px" height="33px" viewBox="0 0 85 33" version="1.1" xmlns="http://www.w3.org/2000/svg" xmlns:xlink="http://www.w3.org/1999/xlink">
    <!-- Generator: Sketch 48.1 (47250) - http://www.bohemiancoding.com/sketch -->
    <title>pic-convertible</title>
    <desc>Created with Sketch.</desc>
    <defs></defs>
    <g id="Symbols" stroke="none" stroke-width="1" fill="none" fill-rule="evenodd">
        <g id="pic-convertible" stroke="#FF7D00">
            <path d="M65.7094877,32.2659574 C68.2652603,32.2659574 70.3350197,30.1961981 70.3350197,27.6404255 C70.3350197,25.084653 68.2652603,23.0148936 65.7094877,23.0148936 C63.1537152,23.0148936 61.0839558,25.084653 61.0839558,27.6404255 C61.0839558,30.1961981 63.1537152,32.2659574 65.7094877,32.2659574 Z M37.4333886,16.474653 C37.4303921,16.4776317 37.4271195,16.4808854 37.4234667,16.4845169 C37.4118214,16.4963849 37.4118214,16.4963849 37.4137011,16.4943668 C37.4186234,16.5018031 37.4212724,16.5058051 37.4333886,16.474653 Z M6.50438993,24.1234402 C6.54337635,24.6474785 6.78709284,25.1234607 7.18780876,25.4513192 L7.37476541,25.6042837 L7.37113335,25.8458158 C7.35575528,26.8684569 8.60228284,27.6128907 10.7906873,28.0272 C11.5635498,28.1735185 12.3952972,28.2670405 13.2338008,28.317515 C13.4923109,28.3330763 13.7289112,28.3434078 13.9378162,28.3497118 C13.9165415,28.125095 13.9073601,27.8842934 13.9073601,27.6170213 C13.9073601,24.0174746 16.8461113,21.0787234 20.445658,21.0787234 C24.0452046,21.0787234 26.9839558,24.0174746 26.9839558,27.6170213 C26.9839558,28.190204 26.9081283,28.7587613 26.7594762,29.2988384 L59.6016795,29.5456036 C58.625555,26.4250815 60.1475177,22.9807143 63.2121499,21.6370014 C66.4846747,20.1769519 70.141035,21.6611404 71.5967339,24.9811586 C72.2311761,26.4192276 72.3203362,28.0213958 71.8702598,29.5043994 L77.4818282,28.5446809 C77.5019713,28.5446809 77.5197634,28.545014 77.535463,28.5456139 L77.2230604,28.0249428 L77.2165538,27.9005951 L77.0115572,23.9282125 C76.3691887,19.9280089 72.8633424,18.3455886 57.3102352,17.28016 L56.7246275,17.3109814 L47.3681194,12.2286964 L50.4693037,15.2577601 L49.5053968,15.4245901 C49.3382681,15.4535163 49.0813894,15.5047685 48.8283355,15.5686403 C48.6131132,15.6229632 48.4218587,15.6903644 48.4767511,15.467207 L48.4105468,15.6601618 C48.1862904,15.9484915 48.1198897,16.3380425 48.2348868,16.699462 L48.4546456,17.3901327 L47.730951,17.3503085 C42.3381428,17.0535479 38.7593327,16.8270768 36.9888165,16.670394 L36.532892,16.6300467 L36.532892,16.1723404 C36.532892,15.926692 37.2125216,15.2520966 37.0765759,15.4054132 C37.1543699,15.3176788 37.2203245,15.2357089 37.2718359,15.1617574 C37.327648,15.0816314 37.3612334,15.0179019 37.3717588,14.9801199 C37.5383369,14.4046682 37.2360489,13.8394075 36.6848648,13.5874556 C36.1396679,13.3382405 35.6091471,13.5043348 35.3172116,14.110455 C35.1206283,14.539364 35.0136364,15.2027143 34.9879672,16.024128 L34.9712089,16.5603925 L34.4374543,16.5059277 C33.2779298,16.3876089 30.1152683,16.0163994 29.5057439,15.9556285 C28.4999283,15.8553466 27.5998155,15.7931468 26.5843197,15.7592969 L26.1995966,15.7464728 L26.1136109,15.3712625 C25.8435619,14.1928667 25.3755024,13.5458432 24.7692721,13.5592775 C24.5729612,13.5660468 24.3626792,14.1789964 24.3626792,15.212766 L24.3626792,15.7054804 L23.8700179,15.7127121 C23.7489854,15.7144887 23.5216238,15.7181561 23.2031319,15.7238218 C22.6720843,15.7332686 22.0802896,15.7449288 21.4429519,15.7589094 C19.6221677,15.79885 17.8014637,15.8493591 16.1026757,15.9112799 C12.7686653,16.0328046 10.3201284,16.1837478 9.17010809,16.3600855 L9.33185294,16.4571324 L9.223399,16.8276834 C9.11870161,17.1853995 9.0341386,17.4275662 8.42078146,19.1543828 C8.41067327,19.182843 8.41067327,19.182843 8.40056823,19.2113032 C7.89226756,20.6430214 7.60523242,21.5109047 7.60523242,21.6021277 C7.60523242,21.8893166 6.9972968,22.3694283 6.94338264,22.4369682 C6.63972326,22.8173712 6.46908478,23.3509067 6.50438993,24.1234402 Z M77.6440164,28.5765957 C77.6409315,28.5786108 77.6371473,28.5789943 77.6371473,28.5765957 L77.6440207,28.5765957 Z M46.3727375,11.688023 L46.3027465,11.6500052 L46.4510769,11.7024119 L46.3727375,11.688023 Z M20.445658,32.2659574 C23.0014305,32.2659574 25.0711899,30.1961981 25.0711899,27.6404255 C25.0711899,25.084653 23.0014305,23.0148936 20.445658,23.0148936 C17.8898854,23.0148936 15.820126,25.084653 15.820126,27.6404255 C15.820126,30.1961981 17.8898854,32.2659574 20.445658,32.2659574 Z"></path>
        </g>
    </g>
</svg>