<?xml version="1.0" encoding="UTF-8"?>
<svg width="85px" height="33px" viewBox="0 0 85 33" version="1.1" xmlns="http://www.w3.org/2000/svg" xmlns:xlink="http://www.w3.org/1999/xlink">
    <!-- Generator: Sketch 48.1 (47250) - http://www.bohemiancoding.com/sketch -->
    <title>pic-van-selected</title>
    <desc>Created with Sketch.</desc>
    <defs></defs>
    <g id="Symbols" stroke="none" stroke-width="1" fill="none" fill-rule="evenodd">
        <g id="pic-van-selected" fill="#FF7D00">
            <path d="M13.8982523,27.7301715 C13.8982523,30.5423597 16.1758923,32.8199997 18.9880805,32.8199997 C21.8002686,32.8199997 24.0779086,30.5423597 24.0779086,27.7301715 C24.0779086,24.9179833 21.8002686,22.6403433 18.9880805,22.6403433 C18.9880805,22.6403433 18.9880805,22.6403433 18.9880805,22.6403433 C16.1758923,22.6403433 13.8982523,24.9179833 13.8982523,27.7301715 C13.8982523,27.7301715 13.8982523,27.7301715 13.8982523,27.7301715 Z M0,23.8721282 C0,25.4757727 0.76696041,27.5907242 4.20666164,28.1717548 C6.5307841,28.5668556 10.5979984,28.9387152 13.1080506,28.9387152 C12.5037788,26.0335621 14.177147,23.0354442 16.9893351,22.0593127 C19.6853172,21.1064225 22.7764001,22.2684837 24.1941148,24.7552948 C25.0772813,26.3124568 25.2167286,28.2182372 24.5659744,29.8916054 C25.4026584,29.8916054 65.5867357,30.1472589 65.7726655,30.1472589 C64.5408806,27.3583119 65.4240471,23.9650931 68.0967879,22.4776548 C70.7695288,20.9902164 74.2324712,21.8036593 75.9755631,24.3369527 C77.1608655,26.0568034 77.3467953,28.3344434 76.4636288,30.2402238 C77.834861,30.2402238 79.2525757,30.263465 80.6005667,30.0078115 C81.1351149,29.9148466 81.6929043,29.7521581 82.0182814,29.2640923 C82.1344876,29.0781625 82.5760708,28.2414785 82.5993121,28.2182372 C82.6690357,28.1717548 84.3888864,27.9625838 84.3888864,25.499014 C84.3888864,22.919238 83.0641366,22.6171021 83.0641366,22.6171021 C83.0641366,22.6171021 84.1099917,18.4104405 82.7387594,15.3658401 C81.5302157,12.6930992 75.4874973,11.6704854 75.4874973,11.6704854 C75.4874973,11.6704854 68.6080949,1.83944737 60.5201487,1.02600451 C52.5251675,0.235802872 17.1287825,-0.600881212 6.90264369,0.607662465 C6.15892451,0.700627363 2.16143388,5.11646003 1.39447347,13.1114413 C1.20854368,15.0404629 1.0458551,21.8501417 1.0458551,21.8501417 C1.0458551,21.8501417 0,22.1290364 0,23.8721282 Z M66.028319,27.7301715 C66.028319,30.5423597 68.305959,32.8199997 71.1181471,32.8199997 C73.9303353,32.8199997 76.2079753,30.5423597 76.2079753,27.7301715 C76.2079753,24.9179833 73.9303353,22.6403433 71.1181471,22.6403433 C68.305959,22.6403433 66.028319,24.9179833 66.028319,27.7301715 C66.028319,27.7301715 66.028319,27.7301715 66.028319,27.7301715 Z" id="pic-van"></path>
        </g>
    </g>
</svg>