<?xml version="1.0" encoding="UTF-8"?>
<svg width="85px" height="33px" viewBox="0 0 85 33" version="1.1" xmlns="http://www.w3.org/2000/svg" xmlns:xlink="http://www.w3.org/1999/xlink">
    <!-- Generator: Sketch 48.1 (47250) - http://www.bohemiancoding.com/sketch -->
    <title>pic-convertible copy</title>
    <desc>Created with Sketch.</desc>
    <defs></defs>
    <g id="Symbols" stroke="none" stroke-width="1" fill="none" fill-rule="evenodd">
        <g id="pic-convertible-copy" fill="#FF7D00">
            <path d="M65.7094877,32.7659574 C68.5414026,32.7659574 70.8350197,30.4723404 70.8350197,27.6404255 C70.8350197,24.8085106 68.5414026,22.5148936 65.7094877,22.5148936 C62.8775728,22.5148936 60.5839558,24.8085106 60.5839558,27.6404255 C60.5839558,30.4723404 62.8775728,32.7659574 65.7094877,32.7659574 Z M6.00523242,24.1531915 C6.05204093,24.8085106 6.35629625,25.4170213 6.87118987,25.8382979 C6.82438136,28.9510638 14.5243814,28.8574468 14.5243814,28.8574468 C14.4307643,28.4595745 14.4073601,28.0382979 14.4073601,27.6170213 C14.4073601,24.293617 17.1222537,21.5787234 20.445658,21.5787234 C23.7690622,21.5787234 26.4839558,24.293617 26.4839558,27.6170213 C26.4839558,28.3659574 26.3435303,29.1148936 26.0626792,29.793617 L60.326509,30.0510638 C58.9690622,27.0085106 60.3733175,23.4276596 63.4158707,22.093617 C66.4584239,20.7361702 69.8052324,22.1404255 71.139275,25.1829787 C71.8414026,26.7744681 71.8179984,28.5765957 71.0924665,30.1446809 L77.4818282,29.0446809 C77.8797005,29.0446809 78.1371473,28.9744681 78.1371473,28.5765957 L77.7158707,27.8744681 L77.5052324,23.8489362 C76.9903388,20.6425532 75.7967218,18.0446809 57.2839558,16.7808511 L56.839275,16.8042553 L46.5414026,11.2106383 L45.3945941,11 L49.420126,14.9319149 C49.420126,14.9319149 48.2031048,15.1425532 48.0158707,15.3531915 C47.6882111,15.7744681 47.5945941,16.3361702 47.7584239,16.8510638 C42.3711899,16.5546099 38.7960126,16.3283688 37.032892,16.1723404 C37.032892,16.1489362 37.7350197,15.5404255 37.8520409,15.1191489 C38.3669345,13.3404255 35.7754452,12.006383 34.8626792,13.9021277 C34.6052324,14.4638298 34.5116154,15.2595745 34.4882111,16.0085106 C31.0477856,15.6574468 29.4094877,15.3531915 26.6009771,15.2595745 C26.3435303,14.1361702 25.8052324,13.0361702 24.7520409,13.0595745 C24.0733175,13.0829787 23.8626792,14.1361702 23.8626792,15.212766 C23.8626792,15.212766 11.1073601,15.4 8.69672178,15.9382979 C7.80736008,16.1255319 8.74353029,16.687234 8.74353029,16.687234 C8.46267923,17.6468085 7.10523242,21.2042553 7.10523242,21.6021277 C7.10523242,21.6957447 5.9116154,22.1638298 6.00523242,24.1531915 Z M20.445658,32.7659574 C23.2775728,32.7659574 25.5711899,30.4723404 25.5711899,27.6404255 C25.5711899,24.8085106 23.2775728,22.5148936 20.445658,22.5148936 C17.6137431,22.5148936 15.320126,24.8085106 15.320126,27.6404255 C15.320126,30.4723404 17.6137431,32.7659574 20.445658,32.7659574 Z" id="pic-convertible"></path>
        </g>
    </g>
</svg>