<?xml version="1.0" encoding="UTF-8"?>
<svg width="85px" height="33px" viewBox="0 0 85 33" version="1.1" xmlns="http://www.w3.org/2000/svg" xmlns:xlink="http://www.w3.org/1999/xlink">
    <!-- Generator: Sketch 48.1 (47250) - http://www.bohemiancoding.com/sketch -->
    <title>pic-suv-selected</title>
    <desc>Created with Sketch.</desc>
    <defs></defs>
    <g id="Symbols" stroke="none" stroke-width="1" fill="none" fill-rule="evenodd">
        <g id="pic-suv-selected" fill="#FF7D00" fill-rule="nonzero">
            <path d="M6.0052604,21.4227402 C6.05231923,22.0815637 6.35820158,22.6933284 6.87584864,23.1168578 C6.82878981,25.6580343 11.581731,26.0580343 13.581731,26.1286225 C13.9111428,22.2933284 17.299378,19.4462696 21.1346722,19.7756814 C24.7582016,20.0815637 27.5111428,23.1168578 27.5111428,26.7403872 C27.5111428,26.8815637 27.5111428,26.9992108 27.4876133,27.1403872 L59.2052604,27.352152 C59.181731,27.1403872 59.181731,26.952152 59.181731,26.7403872 C59.1111428,22.8815637 62.1699663,19.7050931 66.0287898,19.6345049 C69.8876133,19.5639167 73.0640839,22.6227402 73.1346722,26.4815637 C73.1346722,26.5756814 73.1346722,27.1874461 73.1111428,27.3992108 C75.6758486,27.2580343 77.9582016,26.5286225 78.0758486,25.1639167 C78.2170251,23.7756814 77.3934957,19.1403872 77.3934957,19.1403872 C76.899378,15.9168578 74.2876133,13.7756814 55.6758486,12.5050931 C55.6758486,12.5050931 48.7111428,7.28156372 44.0052604,5.86979901 C36.5464369,4.76391666 20.899378,4.41097548 12.8052604,6.6462696 C14.8287898,8.29332842 6.96996628,8.76391666 7.11114276,18.9050931 C7.11114276,18.9286225 5.91114276,19.3992108 6.0052604,21.4227402 Z M60.0523192,26.7168578 C60.0523192,30.0109755 62.7346722,32.6933284 66.0287898,32.6933284 C69.3229075,32.6933284 72.0052604,30.0109755 72.0052604,26.7168578 C72.0052604,23.4227402 69.3229075,20.7403872 66.0287898,20.7403872 C62.7346722,20.7403872 60.0523192,23.4227402 60.0523192,26.7168578 Z M14.4052604,26.7168578 C14.4052604,30.0109755 17.0876133,32.6933284 20.381731,32.6933284 C23.6758486,32.6933284 26.3582016,30.0109755 26.3582016,26.7168578 C26.3582016,23.4227402 23.6758486,20.7403872 20.381731,20.7403872 C17.0876133,20.7403872 14.4052604,23.4227402 14.4052604,26.7168578 Z" id="pic-suv"></path>
        </g>
    </g>
</svg>